<svg width="29" height="29" viewBox="0 0 29 29" fill="none" xmlns="http://www.w3.org/2000/svg">
<path d="M14.0568 21.6073C14.4551 21.6073 14.7892 21.475 15.059 21.2103C15.328 20.9465 15.4625 20.6193 15.4625 20.2288V16.0931H19.7147C20.1129 16.0931 20.4409 15.9608 20.6986 15.6961C20.9563 15.4324 21.0852 15.1052 21.0852 14.7146C21.0852 14.324 20.9503 13.9964 20.6804 13.7317C20.4114 13.4679 20.0778 13.3361 19.6795 13.3361H15.4625V9.16598C15.4625 8.77539 15.328 8.45373 15.059 8.201C14.7892 7.94827 14.4551 7.8219 14.0568 7.8219C13.6585 7.8219 13.3249 7.95378 13.056 8.21754C12.7861 8.48222 12.6511 8.80985 12.6511 9.20044V13.3361H8.39894C8.00066 13.3361 7.67267 13.4679 7.41496 13.7317C7.15725 13.9964 7.0284 14.324 7.0284 14.7146C7.0284 15.1052 7.16288 15.4324 7.43183 15.6961C7.70172 15.9608 8.0358 16.0931 8.43408 16.0931H12.6511V20.2632C12.6511 20.6538 12.7861 20.9755 13.056 21.2282C13.3249 21.4809 13.6585 21.6073 14.0568 21.6073ZM14.0568 28.5C12.1123 28.5 10.2849 28.1379 8.57465 27.4137C6.8644 26.6904 5.37673 25.7085 4.11161 24.4678C2.8465 23.2271 1.84519 21.7681 1.10768 20.0909C0.369225 18.4137 0 16.6216 0 14.7146C0 12.8076 0.369225 11.0155 1.10768 9.33829C1.84519 7.66107 2.8465 6.20212 4.11161 4.96143C5.37673 3.72074 6.8644 2.7383 8.57465 2.01411C10.2849 1.29084 12.1123 0.929199 14.0568 0.929199C16.0013 0.929199 17.8287 1.29084 19.5389 2.01411C21.2492 2.7383 22.7369 3.72074 24.002 4.96143C25.2671 6.20212 26.2684 7.66107 27.0059 9.33829C27.7444 11.0155 28.1136 12.8076 28.1136 14.7146C28.1136 16.6216 27.7444 18.4137 27.0059 20.0909C26.2684 21.7681 25.2671 23.2271 24.002 24.4678C22.7369 25.7085 21.2492 26.6904 19.5389 27.4137C17.8287 28.1379 16.0013 28.5 14.0568 28.5Z" fill="#8D00CA"/>
</svg>
