<svg width="28" height="27" viewBox="0 0 28 27" fill="none" xmlns="http://www.w3.org/2000/svg">
<path d="M14.0834 24.15C14.4859 24.15 14.8719 24.1276 15.2413 24.0829C15.6107 24.0382 15.985 23.9711 16.3642 23.8816L14.7542 21.4666H10.0584V20.125C10.0584 19.3871 10.3214 18.7551 10.8473 18.2292C11.3732 17.7033 12.0047 17.4408 12.7417 17.4417H15.4251V13.4167H12.7417C12.3616 13.4167 12.0427 13.2879 11.7851 13.0303C11.5275 12.7727 11.3992 12.4542 11.4001 12.075V9.39166H10.7963C10.2149 9.39166 9.72299 9.19578 9.32049 8.80401C8.91799 8.41224 8.71674 7.92656 8.71674 7.34696C8.71674 7.14571 8.74492 6.94446 8.80127 6.74321C8.85762 6.54196 8.94125 6.35144 9.05216 6.17166L11.1317 3.11937C8.87327 3.76784 7.01148 5.03125 5.54639 6.90958C4.08129 8.78791 3.34918 10.9569 3.35008 13.4167H4.69174V12.075C4.69174 11.6949 4.82054 11.376 5.07814 11.1184C5.33574 10.8608 5.65417 10.7324 6.03341 10.7333H8.71674C9.09688 10.7333 9.41575 10.8621 9.67335 11.1197C9.93095 11.3773 10.0593 11.6957 10.0584 12.075V13.4167C10.0584 13.7968 9.92961 14.1157 9.67201 14.3733C9.41441 14.6309 9.09599 14.7592 8.71674 14.7583V16.1C8.71674 16.8379 8.45377 17.4698 7.92784 17.9958C7.40191 18.5217 6.77043 18.7842 6.03341 18.7833H4.79237C5.73153 20.3933 7.0173 21.6903 8.64966 22.6741C10.282 23.658 12.0933 24.15 14.0834 24.15ZM24.2801 16.7037C24.459 16.1894 24.5931 15.6581 24.6826 15.1098C24.772 14.5615 24.8167 13.9971 24.8167 13.4167C24.8167 10.9122 24.0564 8.70383 22.5359 6.79151C21.0153 4.87919 19.0923 3.6216 16.7667 3.01875V6.70833C17.5047 6.70833 18.1366 6.97129 18.6625 7.49723C19.1884 8.02316 19.451 8.65464 19.4501 9.39166V12.075C19.8749 12.075 20.2551 12.1255 20.5905 12.2266C20.9259 12.3277 21.2501 12.5343 21.5632 12.8464L24.2801 16.7037ZM14.0834 26.8333C12.2274 26.8333 10.4833 26.4809 8.85091 25.7761C7.21855 25.0713 5.79862 24.1155 4.59112 22.9089C3.38362 21.7014 2.42791 20.2815 1.72398 18.6492C1.02005 17.0168 0.667642 15.2726 0.666748 13.4167C0.666748 11.5607 1.01916 9.81652 1.72398 8.18416C2.4288 6.5518 3.38452 5.13187 4.59112 3.92437C5.79862 2.71687 7.21855 1.76116 8.85091 1.05723C10.4833 0.353305 12.2274 0.000894444 14.0834 0C15.9394 0 17.6835 0.352411 19.3159 1.05723C20.9483 1.76205 22.3682 2.71777 23.5757 3.92437C24.7832 5.13187 25.7393 6.5518 26.4442 8.18416C27.149 9.81652 27.501 11.5607 27.5001 13.4167C27.5001 15.2726 27.1476 17.0168 26.4428 18.6492C25.738 20.2815 24.7823 21.7014 23.5757 22.9089C22.3682 24.1164 20.9483 25.0726 19.3159 25.7774C17.6835 26.4822 15.9394 26.8342 14.0834 26.8333Z" fill="white"/>
</svg>
