<svg width="925" height="374" viewBox="0 0 925 374" fill="none" xmlns="http://www.w3.org/2000/svg">
<rect x="1" y="1" width="923" height="372" rx="9" fill="white"/>
<path d="M30.88 44.3361H33.68V35.2561L37.44 44.3361H39.56L43.3 35.2561V44.3361H46.1V30.3761H42.94L38.5 40.7561L34.06 30.3761H30.88V44.3361ZM53.5883 40.9961L50.7283 33.2561H47.5883L52.0283 44.0561L49.6283 49.5761H52.6083L59.4683 33.2561H56.4883L53.5883 40.9961ZM75.2233 44.3361H78.1833L73.1633 30.3561H69.9033L64.8833 44.3361H67.8233L68.7433 41.6761H74.3033L75.2233 44.3361ZM73.5433 39.4361H69.5033L71.5233 33.5961L73.5433 39.4361ZM79.3397 38.7961C79.3397 42.2761 81.6197 44.5161 84.8197 44.5161C87.5797 44.5161 89.4397 42.9561 90.0397 40.5961H87.0197C86.6797 41.5961 85.9597 42.1161 84.7997 42.1161C83.2397 42.1161 82.1997 40.9561 82.1997 38.7961C82.1997 36.6361 83.2397 35.4561 84.7997 35.4561C85.9597 35.4561 86.6997 36.0561 87.0197 36.9961H90.0397C89.4397 34.5161 87.5797 33.0761 84.8197 33.0761C81.6197 33.0761 79.3397 35.3161 79.3397 38.7961ZM92.5309 40.8961C92.5309 43.4361 93.9509 44.3361 96.0709 44.3361H97.8309V41.9761H96.5309C95.6509 41.9761 95.3509 41.6561 95.3509 40.9161V35.5561H97.8309V33.2561H95.3509V30.5161H92.5309V33.2561H91.2109V35.5561H92.5309V40.8961ZM99.8448 44.3361H102.645V33.2561H99.8448V44.3361ZM101.265 31.9361C102.245 31.9361 102.985 31.2161 102.985 30.2961C102.985 29.3761 102.245 28.6561 101.265 28.6561C100.265 28.6561 99.5448 29.3761 99.5448 30.2961C99.5448 31.2161 100.265 31.9361 101.265 31.9361ZM104.231 33.2561L108.311 44.3361H111.711L115.811 33.2561H112.831L110.031 41.7561L107.231 33.2561H104.231ZM117.384 44.3361H120.184V33.2561H117.384V44.3361ZM118.804 31.9361C119.784 31.9361 120.524 31.2161 120.524 30.2961C120.524 29.3761 119.784 28.6561 118.804 28.6561C117.804 28.6561 117.084 29.3761 117.084 30.2961C117.084 31.2161 117.804 31.9361 118.804 31.9361ZM123.39 40.8961C123.39 43.4361 124.81 44.3361 126.93 44.3361H128.69V41.9761H127.39C126.51 41.9761 126.21 41.6561 126.21 40.9161V35.5561H128.69V33.2561H126.21V30.5161H123.39V33.2561H122.07V35.5561H123.39V40.8961ZM135.424 40.9961L132.564 33.2561H129.424L133.864 44.0561L131.464 49.5761H134.444L141.304 33.2561H138.324L135.424 40.9961Z" fill="black"/>
<path d="M582.471 34.328H585.145V43.05H586.419V34.328H589.079V33.292H582.471V34.328ZM597.927 39.2C597.927 36.778 596.233 35.252 594.049 35.252C591.879 35.252 590.171 36.778 590.171 39.2C590.171 41.636 591.823 43.176 593.993 43.176C596.177 43.176 597.927 41.636 597.927 39.2ZM591.473 39.2C591.473 37.268 592.691 36.358 594.035 36.358C595.351 36.358 596.625 37.268 596.625 39.2C596.625 41.146 595.323 42.056 593.993 42.056C592.663 42.056 591.473 41.146 591.473 39.2ZM599.882 40.95C599.882 42.49 600.652 43.05 602.01 43.05H603.158V41.972H602.22C601.436 41.972 601.156 41.706 601.156 40.95V36.428H603.158V35.378H601.156V33.446H599.882V35.378H598.888V36.428H599.882V40.95ZM604.226 39.186C604.226 41.566 605.808 43.176 607.852 43.176C609.266 43.176 610.26 42.448 610.722 41.622V43.05H612.01V35.378H610.722V36.778C610.274 35.98 609.294 35.252 607.866 35.252C605.808 35.252 604.226 36.792 604.226 39.186ZM610.722 39.2C610.722 41.006 609.518 42.056 608.118 42.056C606.718 42.056 605.528 40.992 605.528 39.186C605.528 37.38 606.718 36.358 608.118 36.358C609.518 36.358 610.722 37.422 610.722 39.2ZM614.163 43.05H615.437V32.69H614.163V43.05ZM620.739 34.328H623.413V43.05H624.687V34.328H627.347V33.292H620.739V34.328ZM630.189 38.878C630.189 37.1 631.113 36.554 632.331 36.554H632.667V35.238C631.449 35.238 630.623 35.77 630.189 36.624V35.378H628.915V43.05H630.189V38.878ZM633.662 39.186C633.662 41.566 635.244 43.176 637.288 43.176C638.702 43.176 639.696 42.448 640.158 41.622V43.05H641.446V35.378H640.158V36.778C639.71 35.98 638.73 35.252 637.302 35.252C635.244 35.252 633.662 36.792 633.662 39.186ZM640.158 39.2C640.158 41.006 638.954 42.056 637.554 42.056C636.154 42.056 634.964 40.992 634.964 39.186C634.964 37.38 636.154 36.358 637.554 36.358C638.954 36.358 640.158 37.422 640.158 39.2ZM649.213 43.05H650.473V38.528C650.473 36.33 649.115 35.238 647.337 35.238C646.301 35.238 645.377 35.672 644.873 36.47V35.378H643.599V43.05H644.873V38.808C644.873 37.156 645.769 36.344 647.071 36.344C648.359 36.344 649.213 37.142 649.213 38.71V43.05ZM658.07 40.964C658.014 38.22 653.562 39.214 653.562 37.394C653.562 36.778 654.122 36.33 655.06 36.33C656.082 36.33 656.67 36.89 656.726 37.66H658C657.916 36.162 656.796 35.252 655.102 35.252C653.394 35.252 652.288 36.218 652.288 37.394C652.288 40.25 656.824 39.256 656.824 40.964C656.824 41.594 656.264 42.098 655.256 42.098C654.178 42.098 653.52 41.538 653.45 40.796H652.134C652.218 42.196 653.478 43.176 655.27 43.176C656.964 43.176 658.07 42.224 658.07 40.964ZM660.106 43.05H661.38V36.428H662.99V35.378H661.38V34.832C661.38 33.838 661.758 33.418 662.906 33.418V32.354C660.946 32.354 660.106 33.124 660.106 34.832V35.378H659.112V36.428H660.106V43.05ZM667.737 36.33C669.053 36.33 670.173 37.156 670.159 38.654H665.315C665.455 37.156 666.491 36.33 667.737 36.33ZM671.321 40.684H669.949C669.669 41.51 668.941 42.098 667.793 42.098C666.491 42.098 665.399 41.244 665.301 39.69H671.433C671.461 39.424 671.475 39.2 671.475 38.92C671.475 36.82 670.019 35.252 667.793 35.252C665.553 35.252 663.999 36.778 663.999 39.2C663.999 41.636 665.609 43.176 667.793 43.176C669.697 43.176 670.929 42.084 671.321 40.684ZM674.431 38.878C674.431 37.1 675.355 36.554 676.573 36.554H676.909V35.238C675.691 35.238 674.865 35.77 674.431 36.624V35.378H673.157V43.05H674.431V38.878ZM679.626 42.266C679.626 41.776 679.248 41.398 678.786 41.398C678.296 41.398 677.918 41.776 677.918 42.266C677.918 42.756 678.296 43.134 678.786 43.134C679.248 43.134 679.626 42.756 679.626 42.266ZM679.626 36.274C679.626 35.784 679.248 35.406 678.786 35.406C678.296 35.406 677.918 35.784 677.918 36.274C677.918 36.764 678.296 37.142 678.786 37.142C679.248 37.142 679.626 36.764 679.626 36.274Z" fill="#747175"/>
<path d="M54.1111 336.408C54.1111 340.188 55.0471 343.05 58.6471 343.05C62.2291 343.05 63.1651 340.188 63.1651 336.408C63.1651 332.682 62.2291 329.838 58.6471 329.838C55.0471 329.838 54.1111 332.682 54.1111 336.408ZM61.5451 336.408C61.5451 339.216 61.2031 341.556 58.6471 341.556C56.0731 341.556 55.7311 339.216 55.7311 336.408C55.7311 333.708 56.0731 331.332 58.6471 331.332C61.2031 331.332 61.5451 333.708 61.5451 336.408ZM66.7099 343.05H68.3659V330.036H64.9819V331.53H66.7099V343.05Z" fill="#747175"/>
<path d="M27.5428 309.336C27.5428 313.116 28.4788 315.978 32.0788 315.978C35.6608 315.978 36.5968 313.116 36.5968 309.336C36.5968 305.61 35.6608 302.766 32.0788 302.766C28.4788 302.766 27.5428 305.61 27.5428 309.336ZM34.9768 309.336C34.9768 312.144 34.6348 314.484 32.0788 314.484C29.5048 314.484 29.1628 312.144 29.1628 309.336C29.1628 306.636 29.5048 304.26 32.0788 304.26C34.6348 304.26 34.9768 306.636 34.9768 309.336ZM39.1155 315.978H40.7535V311.622L44.6235 315.978H46.8555L42.1935 311.028L46.8375 306.114H44.5515L40.7535 310.488V302.658H39.1155V315.978Z" fill="#747175"/>
<path d="M27.3448 253.834H36.0028V252.466H29.8108C32.1328 250.576 35.6248 247.822 35.6248 244.582C35.6248 242.17 34.0408 240.73 31.5928 240.73C29.2528 240.73 27.5068 242.17 27.3988 244.942H28.9828C29.0548 243.304 29.9188 242.134 31.6108 242.134C33.3748 242.134 34.0048 243.214 34.0048 244.654C34.0048 247.318 30.7648 249.91 27.3448 252.664V253.834ZM38.1663 253.978H39.8043V249.622L43.6743 253.978H45.9063L41.2443 249.028L45.8883 244.114H43.6023L39.8043 248.488V240.658H38.1663V253.978Z" fill="#747175"/>
<path d="M33.8068 187H35.4268V184.102H37.2268V182.68H35.4268V174.112H33.4648L27.1468 182.86V184.102H33.8068V187ZM29.0368 182.68L33.8788 175.822V182.68H29.0368ZM39.1331 187H40.7711V182.644L44.6411 187H46.8731L42.2111 182.05L46.8551 177.136H44.5691L40.7711 181.51V173.68H39.1331V187Z" fill="#747175"/>
<path d="M36.3088 114.273C36.0928 112.455 34.8328 110.907 32.3488 110.907C29.0548 110.907 27.7408 113.427 27.7408 117.513C27.7408 121.455 28.6588 124.227 32.5108 124.227C35.3548 124.227 36.7588 122.283 36.7588 119.907C36.7588 117.171 35.1208 115.569 32.6908 115.569C31.1428 115.569 29.7208 116.289 29.1628 117.567C29.1448 113.697 30.2608 112.275 32.3308 112.275C33.8068 112.275 34.5448 113.013 34.7968 114.273H36.3088ZM32.3488 116.955C34.2208 116.955 35.1748 118.125 35.1748 119.961C35.1748 121.725 34.1128 122.859 32.4208 122.859C30.3688 122.859 29.3608 121.509 29.3608 119.781C29.3608 117.837 30.8548 116.955 32.3488 116.955ZM39.2385 124.191H40.8765V119.835L44.7465 124.191H46.9785L42.3165 119.241L46.9605 114.327H44.6745L40.8765 118.701V110.871H39.2385V124.191Z" fill="#747175"/>
<path d="M184.116 336.408C184.116 340.188 185.052 343.05 188.652 343.05C192.234 343.05 193.17 340.188 193.17 336.408C193.17 332.682 192.234 329.838 188.652 329.838C185.052 329.838 184.116 332.682 184.116 336.408ZM191.55 336.408C191.55 339.216 191.208 341.556 188.652 341.556C186.078 341.556 185.736 339.216 185.736 336.408C185.736 333.708 186.078 331.332 188.652 331.332C191.208 331.332 191.55 333.708 191.55 336.408ZM195.887 330.018V337.362H197.435C197.867 336.336 198.821 335.652 200.135 335.652C202.025 335.652 202.979 336.732 202.979 338.586C202.979 340.368 202.097 341.7 200.117 341.7C198.587 341.7 197.525 340.89 197.219 339.522H195.617C195.941 341.628 197.507 343.086 200.099 343.086C203.141 343.086 204.545 341.07 204.545 338.55C204.545 336.534 203.537 334.248 200.369 334.248C199.091 334.248 197.939 334.824 197.399 335.562V331.458H203.717V330.018H195.887Z" fill="#747175"/>
<path d="M321.417 343.05H323.073V330.036H319.689V331.53H321.417V343.05ZM325.887 336.408C325.887 340.188 326.823 343.05 330.423 343.05C334.005 343.05 334.941 340.188 334.941 336.408C334.941 332.682 334.005 329.838 330.423 329.838C326.823 329.838 325.887 332.682 325.887 336.408ZM333.321 336.408C333.321 339.216 332.979 341.556 330.423 341.556C327.849 341.556 327.507 339.216 327.507 336.408C327.507 333.708 327.849 331.332 330.423 331.332C332.979 331.332 333.321 333.708 333.321 336.408Z" fill="#747175"/>
<path d="M451.422 343.05H453.078V330.036H449.694V331.53H451.422V343.05ZM456.36 330.018V337.362H457.908C458.34 336.336 459.294 335.652 460.608 335.652C462.498 335.652 463.452 336.732 463.452 338.586C463.452 340.368 462.57 341.7 460.59 341.7C459.06 341.7 457.998 340.89 457.692 339.522H456.09C456.414 341.628 457.98 343.086 460.572 343.086C463.614 343.086 465.018 341.07 465.018 338.55C465.018 336.534 464.01 334.248 460.842 334.248C459.564 334.248 458.412 334.824 457.872 335.562V331.458H464.19V330.018H456.36Z" fill="#747175"/>
<path d="M579.933 342.906H588.591V341.538H582.399C584.721 339.648 588.213 336.894 588.213 333.654C588.213 331.242 586.629 329.802 584.181 329.802C581.841 329.802 580.095 331.242 579.987 334.014H581.571C581.643 332.376 582.507 331.206 584.199 331.206C585.963 331.206 586.593 332.286 586.593 333.726C586.593 336.39 583.353 338.982 579.933 341.736V342.906ZM590.485 336.408C590.485 340.188 591.421 343.05 595.021 343.05C598.603 343.05 599.539 340.188 599.539 336.408C599.539 332.682 598.603 329.838 595.021 329.838C591.421 329.838 590.485 332.682 590.485 336.408ZM597.919 336.408C597.919 339.216 597.577 341.556 595.021 341.556C592.447 341.556 592.105 339.216 592.105 336.408C592.105 333.708 592.447 331.332 595.021 331.332C597.577 331.332 597.919 333.708 597.919 336.408Z" fill="#747175"/>
<path d="M714.938 342.906H723.596V341.538H717.404C719.726 339.648 723.218 336.894 723.218 333.654C723.218 331.242 721.634 329.802 719.186 329.802C716.846 329.802 715.1 331.242 714.992 334.014H716.576C716.648 332.376 717.512 331.206 719.204 331.206C720.968 331.206 721.598 332.286 721.598 333.726C721.598 336.39 718.358 338.982 714.938 341.736V342.906ZM725.958 330.018V337.362H727.506C727.938 336.336 728.892 335.652 730.206 335.652C732.096 335.652 733.05 336.732 733.05 338.586C733.05 340.368 732.168 341.7 730.188 341.7C728.658 341.7 727.596 340.89 727.29 339.522H725.688C726.012 341.628 727.578 343.086 730.17 343.086C733.212 343.086 734.616 341.07 734.616 338.55C734.616 336.534 733.608 334.248 730.44 334.248C729.162 334.248 728.01 334.824 727.47 335.562V331.458H733.788V330.018H725.958Z" fill="#747175"/>
<path d="M850.105 333.312H851.707C851.869 332.052 852.787 331.188 854.317 331.188C855.883 331.188 856.711 332.052 856.711 333.294C856.711 334.806 855.541 335.472 853.363 335.49H852.931V336.858H853.345C855.685 336.858 856.963 337.56 856.963 339.396C856.963 340.728 856.135 341.754 854.389 341.754C852.661 341.754 851.653 340.692 851.491 339.306H849.907C850.105 341.826 851.941 343.14 854.407 343.14C857.125 343.14 858.529 341.556 858.529 339.54C858.529 337.668 857.503 336.552 855.991 336.192V336.102C857.359 335.796 858.295 334.626 858.295 333.132C858.295 331.26 856.909 329.784 854.371 329.784C851.959 329.784 850.267 331.08 850.105 333.312ZM860.741 336.408C860.741 340.188 861.677 343.05 865.277 343.05C868.859 343.05 869.795 340.188 869.795 336.408C869.795 332.682 868.859 329.838 865.277 329.838C861.677 329.838 860.741 332.682 860.741 336.408ZM868.175 336.408C868.175 339.216 867.833 341.556 865.277 341.556C862.703 341.556 862.361 339.216 862.361 336.408C862.361 333.708 862.703 331.332 865.277 331.332C867.833 331.332 868.175 333.708 868.175 336.408Z" fill="#747175"/>
<path d="M696.107 32.3693V42.3413L689.519 32.3693H687.881V44.9333H689.519V34.9433L696.107 44.9333H697.745V32.3693H696.107ZM706.531 44.9333H708.151V42.0353H709.951V40.6133H708.151V32.0453H706.189L699.871 40.7933V42.0353H706.531V44.9333ZM701.761 40.6133L706.603 33.7553V40.6133H701.761ZM713.46 43.9253C713.46 43.2953 712.974 42.8093 712.38 42.8093C711.75 42.8093 711.264 43.2953 711.264 43.9253C711.264 44.5553 711.75 45.0413 712.38 45.0413C712.974 45.0413 713.46 44.5553 713.46 43.9253ZM715.961 41.4413C716.141 43.3493 717.401 44.9513 719.993 44.9513C723.413 44.9513 724.403 42.5213 724.403 38.1833C724.403 34.1513 723.377 31.6673 719.849 31.6673C717.041 31.6673 715.565 33.4673 715.565 35.9513C715.565 38.7053 717.347 40.1993 719.741 40.1993C721.145 40.1993 722.441 39.5693 722.963 38.4713C723.017 42.2873 721.991 43.5833 720.083 43.5833C718.571 43.5833 717.707 42.7913 717.473 41.4413H715.961ZM720.011 38.8133C718.067 38.8133 717.131 37.5893 717.131 35.9153C717.131 34.1873 718.193 33.0353 719.885 33.0353C721.757 33.0353 722.765 34.2773 722.765 36.0413C722.765 37.7873 721.577 38.8133 720.011 38.8133ZM726.975 44.9333H728.613V40.5773L732.483 44.9333H734.715L730.053 39.9833L734.697 35.0693H732.411L728.613 39.4433V31.6133H726.975V44.9333Z" fill="#EE2C59"/>
<path d="M756.976 35.3669H759.65V44.0889H760.924V35.3669H763.584V34.3309H756.976V35.3669ZM772.432 40.2389C772.432 37.8169 770.738 36.2909 768.554 36.2909C766.384 36.2909 764.676 37.8169 764.676 40.2389C764.676 42.6749 766.328 44.2149 768.498 44.2149C770.682 44.2149 772.432 42.6749 772.432 40.2389ZM765.978 40.2389C765.978 38.3069 767.196 37.3969 768.54 37.3969C769.856 37.3969 771.13 38.3069 771.13 40.2389C771.13 42.1849 769.828 43.0949 768.498 43.0949C767.168 43.0949 765.978 42.1849 765.978 40.2389ZM774.387 41.9889C774.387 43.5289 775.157 44.0889 776.515 44.0889H777.663V43.0109H776.725C775.941 43.0109 775.661 42.7449 775.661 41.9889V37.4669H777.663V36.4169H775.661V34.4849H774.387V36.4169H773.393V37.4669H774.387V41.9889ZM778.731 40.2249C778.731 42.6049 780.313 44.2149 782.357 44.2149C783.771 44.2149 784.765 43.4869 785.227 42.6609V44.0889H786.515V36.4169H785.227V37.8169C784.779 37.0189 783.799 36.2909 782.371 36.2909C780.313 36.2909 778.731 37.8309 778.731 40.2249ZM785.227 40.2389C785.227 42.0449 784.023 43.0949 782.623 43.0949C781.223 43.0949 780.033 42.0309 780.033 40.2249C780.033 38.4189 781.223 37.3969 782.623 37.3969C784.023 37.3969 785.227 38.4609 785.227 40.2389ZM788.668 44.0889H789.942V33.7289H788.668V44.0889ZM797.12 38.9649V35.3809H798.996C800.452 35.3809 801.068 36.0529 801.068 37.1869C801.068 38.2789 800.452 38.9649 798.996 38.9649H797.12ZM802.37 37.1869C802.37 35.5909 801.292 34.3309 798.996 34.3309H795.846V44.0889H797.12V40.0149H798.996C801.418 40.0149 802.37 38.6709 802.37 37.1869ZM803.477 40.2249C803.477 42.6049 805.059 44.2149 807.103 44.2149C808.517 44.2149 809.511 43.4869 809.973 42.6609V44.0889H811.261V36.4169H809.973V37.8169C809.525 37.0189 808.545 36.2909 807.117 36.2909C805.059 36.2909 803.477 37.8309 803.477 40.2249ZM809.973 40.2389C809.973 42.0449 808.769 43.0949 807.369 43.0949C805.969 43.0949 804.779 42.0309 804.779 40.2249C804.779 38.4189 805.969 37.3969 807.369 37.3969C808.769 37.3969 809.973 38.4609 809.973 40.2389ZM816.326 42.6329L813.918 36.4169H812.504L815.598 44.0049L814.086 47.7009H815.402L820.022 36.4169H818.706L816.326 42.6329ZM822.577 39.9169C822.577 38.1389 823.501 37.5929 824.719 37.5929H825.055V36.2769C823.837 36.2769 823.011 36.8089 822.577 37.6629V36.4169H821.303V44.0889H822.577V39.9169ZM833.805 40.2389C833.805 37.8169 832.111 36.2909 829.927 36.2909C827.757 36.2909 826.049 37.8169 826.049 40.2389C826.049 42.6749 827.701 44.2149 829.871 44.2149C832.055 44.2149 833.805 42.6749 833.805 40.2389ZM827.351 40.2389C827.351 38.3069 828.569 37.3969 829.913 37.3969C831.229 37.3969 832.503 38.3069 832.503 40.2389C832.503 42.1849 831.201 43.0949 829.871 43.0949C828.541 43.0949 827.351 42.1849 827.351 40.2389ZM835.48 44.0889H836.754V33.7289H835.48V44.0889ZM838.926 44.0889H840.2V33.7289H838.926V44.0889ZM843.617 43.3049C843.617 42.8149 843.239 42.4369 842.777 42.4369C842.287 42.4369 841.909 42.8149 841.909 43.3049C841.909 43.7949 842.287 44.1729 842.777 44.1729C843.239 44.1729 843.617 43.7949 843.617 43.3049ZM843.617 37.3129C843.617 36.8229 843.239 36.4449 842.777 36.4449C842.287 36.4449 841.909 36.8229 841.909 37.3129C841.909 37.8029 842.287 38.1809 842.777 38.1809C843.239 38.1809 843.617 37.8029 843.617 37.3129Z" fill="#747175"/>
<path d="M861.612 32.3693V42.3413L855.024 32.3693H853.386V44.9333H855.024V34.9433L861.612 44.9333H863.25V32.3693H861.612ZM865.25 31.9553V33.3593H872.198L867.122 44.9333H868.778L873.782 33.1973V31.9553H865.25ZM877.47 43.9253C877.47 43.2953 876.984 42.8093 876.39 42.8093C875.76 42.8093 875.274 43.2953 875.274 43.9253C875.274 44.5553 875.76 45.0413 876.39 45.0413C876.984 45.0413 877.47 44.5553 877.47 43.9253ZM879.18 44.7893H887.838V43.4213H881.646C883.968 41.5313 887.46 38.7773 887.46 35.5373C887.46 33.1253 885.876 31.6853 883.428 31.6853C881.088 31.6853 879.342 33.1253 879.234 35.8973H880.818C880.89 34.2593 881.754 33.0893 883.446 33.0893C885.21 33.0893 885.84 34.1693 885.84 35.6093C885.84 38.2733 882.6 40.8653 879.18 43.6193V44.7893ZM890.001 44.9333H891.639V40.5773L895.509 44.9333H897.741L893.079 39.9833L897.723 35.0693H895.437L891.639 39.4433V31.6133H890.001V44.9333Z" fill="#03A800"/>
<path d="M52.9951 311.739L872.005 311.739" stroke="#CECECE" stroke-width="2"/>
<path d="M52.9951 247.739L872.005 247.739" stroke="#CECECE" stroke-width="2"/>
<path d="M52.9951 182.211L872.005 182.211" stroke="#CECECE" stroke-width="2"/>
<path d="M52.9951 118.211L872.005 118.211" stroke="#CECECE" stroke-width="2"/>
<path d="M52.9951 311.739L127.023 249.005L201.051 277.215L275.079 245.025H349.107L423.151 218.444L497.178 177.858L571.206 226.839L645.234 124.191L719.262 240.357H793.29L867.318 184.843" stroke="#EE2C59" stroke-width="2" stroke-miterlimit="10"/>
<path d="M53 314L127.023 225.429L201.051 168.521L275.079 230.752L349.106 279.549H423.151L497.178 224.035L568 91L645.234 178.412H719.262L793.29 130.253L872.005 79.726" stroke="#03A800" stroke-width="2" stroke-miterlimit="10"/>
<g clip-path="url(#clip0_827_2652)">
<rect x="488.25" y="20.125" width="31.5" height="33.8418" fill="#A200E8"/>
<path d="M432.039 30.4749H428.133V43.0209H432.039C436.161 43.0209 438.699 40.6629 438.699 36.7749C438.699 32.8869 436.161 30.4749 432.039 30.4749ZM429.771 41.6709V31.8069H432.039C435.315 31.8069 437.025 33.7149 437.025 36.7749C437.025 39.8349 435.315 41.6709 432.039 41.6709H429.771Z" fill="#838383"/>
<path d="M460.421 42.9764L462.239 42.9584L465.263 32.8604L468.179 42.9584H470.015L473.651 30.4124H471.887L469.133 41.0144L466.253 30.4124H464.417L461.393 41.0504L458.657 30.4124H456.911L460.421 42.9764Z" fill="#838383"/>
<path d="M498.884 42.9584H500.522V33.6524L504.68 42.9584H505.832L509.972 33.6704V42.9584H511.61V30.5024H509.864L505.256 40.7984L500.648 30.5024H498.884V42.9584Z" fill="white"/>
<path d="M539.944 38.2244V42.9584H541.582V38.2244L545.668 30.4124H543.85L540.754 36.7664L537.658 30.4124H535.84L539.944 38.2244Z" fill="#838383"/>
</g>
<rect x="415" y="21.9834" width="140" height="30" stroke="#F0EEEE" stroke-width="2"/>
<rect x="1" y="1" width="923" height="372" rx="9" stroke="#DCDCDC" stroke-width="2"/>
<defs>
<clipPath id="clip0_827_2652">
<rect x="414" y="20.9834" width="142" height="32" fill="white"/>
</clipPath>
</defs>
</svg>
