<svg width="21" height="20" viewBox="0 0 21 20" fill="none" xmlns="http://www.w3.org/2000/svg">
<path d="M11.5001 5.58329V1.24996C11.5001 0.943015 11.6041 0.685543 11.8121 0.477543C12.0194 0.270265 12.2765 0.166626 12.5834 0.166626H19.0834C19.3904 0.166626 19.6475 0.270265 19.8547 0.477543C20.0627 0.685543 20.1667 0.943015 20.1667 1.24996V5.58329C20.1667 5.89024 20.0627 6.14735 19.8547 6.35463C19.6475 6.56263 19.3904 6.66663 19.0834 6.66663H12.5834C12.2765 6.66663 12.0194 6.56263 11.8121 6.35463C11.6041 6.14735 11.5001 5.89024 11.5001 5.58329ZM0.666748 9.91663V1.24996C0.666748 0.943015 0.770748 0.685543 0.978748 0.477543C1.18603 0.270265 1.44314 0.166626 1.75008 0.166626H8.25008C8.55703 0.166626 8.8145 0.270265 9.0225 0.477543C9.22978 0.685543 9.33342 0.943015 9.33342 1.24996V9.91663C9.33342 10.2236 9.22978 10.4807 9.0225 10.688C8.8145 10.896 8.55703 11 8.25008 11H1.75008C1.44314 11 1.18603 10.896 0.978748 10.688C0.770748 10.4807 0.666748 10.2236 0.666748 9.91663ZM11.5001 18.5833V9.91663C11.5001 9.60968 11.6041 9.35221 11.8121 9.14421C12.0194 8.93693 12.2765 8.83329 12.5834 8.83329H19.0834C19.3904 8.83329 19.6475 8.93693 19.8547 9.14421C20.0627 9.35221 20.1667 9.60968 20.1667 9.91663V18.5833C20.1667 18.8902 20.0627 19.1473 19.8547 19.3546C19.6475 19.5626 19.3904 19.6666 19.0834 19.6666H12.5834C12.2765 19.6666 12.0194 19.5626 11.8121 19.3546C11.6041 19.1473 11.5001 18.8902 11.5001 18.5833ZM0.666748 18.5833V14.25C0.666748 13.943 0.770748 13.6855 0.978748 13.4775C1.18603 13.2703 1.44314 13.1666 1.75008 13.1666H8.25008C8.55703 13.1666 8.8145 13.2703 9.0225 13.4775C9.22978 13.6855 9.33342 13.943 9.33342 14.25V18.5833C9.33342 18.8902 9.22978 19.1473 9.0225 19.3546C8.8145 19.5626 8.55703 19.6666 8.25008 19.6666H1.75008C1.44314 19.6666 1.18603 19.5626 0.978748 19.3546C0.770748 19.1473 0.666748 18.8902 0.666748 18.5833Z" fill="white"/>
</svg>
