<svg width="17" height="17" viewBox="0 0 17 17" fill="none" xmlns="http://www.w3.org/2000/svg">
<g clip-path="url(#clip0_834_7552)">
<path d="M13.859 11.3493C15.56 9.83133 16.5 8.11133 16.5 8.11133C16.5 8.11133 13.5 2.61133 8.49996 2.61133C7.53955 2.61464 6.59002 2.81475 5.70996 3.19933L6.47996 3.97033C7.1274 3.73448 7.81091 3.61301 8.49996 3.61133C10.62 3.61133 12.379 4.77933 13.668 6.06833C14.2883 6.69202 14.8444 7.37646 15.328 8.11133C15.27 8.19833 15.206 8.29433 15.133 8.39933C14.798 8.87933 14.303 9.51933 13.668 10.1543C13.503 10.3193 13.331 10.4823 13.151 10.6403L13.859 11.3493Z" fill="black"/>
<path d="M11.7969 9.28732C12.02 8.66316 12.0613 7.98846 11.916 7.34174C11.7707 6.69501 11.4448 6.10284 10.976 5.63414C10.5073 5.16543 9.91517 4.83946 9.26845 4.69415C8.62172 4.54884 7.94702 4.59016 7.32287 4.81332L8.14587 5.63632C8.53018 5.58131 8.92202 5.61656 9.29034 5.73928C9.65866 5.862 9.99334 6.06881 10.2679 6.34333C10.5424 6.61785 10.7492 6.95252 10.8719 7.32085C10.9946 7.68917 11.0299 8.08101 10.9749 8.46532L11.7969 9.28732ZM8.85387 10.5863L9.67587 11.4083C9.05171 11.6315 8.37701 11.6728 7.73029 11.5275C7.08356 11.3822 6.49139 11.0562 6.02269 10.5875C5.55398 10.1188 5.22801 9.52662 5.0827 8.8799C4.93738 8.23317 4.97871 7.55847 5.20187 6.93432L6.02487 7.75732C5.96986 8.14163 6.00511 8.53347 6.12783 8.90179C6.25055 9.27011 6.45736 9.60479 6.73188 9.87931C7.0064 10.1538 7.34107 10.3606 7.7094 10.4834C8.07772 10.6061 8.46956 10.6413 8.85387 10.5863Z" fill="black"/>
<path d="M3.85 5.58132C3.67 5.74132 3.497 5.90332 3.332 6.06832C2.71165 6.69201 2.15552 7.37645 1.672 8.11132L1.867 8.39932C2.202 8.87932 2.697 9.51932 3.332 10.1543C4.621 11.4433 6.381 12.6113 8.5 12.6113C9.216 12.6113 9.89 12.4783 10.52 12.2513L11.29 13.0233C10.4099 13.4079 9.4604 13.608 8.5 13.6113C3.5 13.6113 0.5 8.11132 0.5 8.11132C0.5 8.11132 1.439 6.39032 3.141 4.87332L3.849 5.58232L3.85 5.58132ZM14.146 14.4653L2.146 2.46532L2.854 1.75732L14.854 13.7573L14.146 14.4653Z" fill="black"/>
</g>
<defs>
<clipPath id="clip0_834_7552">
<rect width="16" height="16" fill="white" transform="translate(0.5 0.111328)"/>
</clipPath>
</defs>
</svg>
