<svg width="45" height="45" viewBox="0 0 45 45" fill="none" xmlns="http://www.w3.org/2000/svg">
<rect width="45" height="45" rx="22.5" fill="#2400FF" fill-opacity="0.23"/>
<path d="M14.5 12V15H11.5V17H14.5V20H16.5V17H19.5V15H16.5V12H14.5ZM21.5 15V17H30.5V19H24.5C23.4 19 22.5 19.9 22.5 21V27C22.5 28.1 23.4 29 24.5 29H30.5V31H16.5V22H14.5V31C14.5 31.5304 14.7107 32.0391 15.0858 32.4142C15.4609 32.7893 15.9696 33 16.5 33H30.5C31.6 33 32.5 32.1 32.5 31V28.72C32.8023 28.5455 33.0536 28.2949 33.229 27.9932C33.4045 27.6914 33.4979 27.349 33.5 27V21C33.4979 20.651 33.4045 20.3086 33.229 20.0068C33.0536 19.7051 32.8023 19.4545 32.5 19.28V17C32.5 15.9 31.6 15 30.5 15H21.5ZM24.5 21H31.5V27H24.5V21ZM27.5 22.5C27.1022 22.5 26.7206 22.658 26.4393 22.9393C26.158 23.2206 26 23.6022 26 24C26 24.3978 26.158 24.7793 26.4393 25.0607C26.7206 25.342 27.1022 25.5 27.5 25.5C27.8978 25.5 28.2793 25.342 28.5606 25.0607C28.842 24.7793 29 24.3978 29 24C29 23.6022 28.842 23.2206 28.5606 22.9393C28.2793 22.658 27.8978 22.5 27.5 22.5Z" fill="#2502FB"/>
</svg>
