<svg width="27" height="27" viewBox="0 0 27 27" fill="none" xmlns="http://www.w3.org/2000/svg">
<path d="M17.502 14.822C22.1321 14.822 25.8854 13.1539 25.8854 11.0961C25.8854 9.03828 22.1321 7.37012 17.502 7.37012C12.872 7.37012 9.11865 9.03828 9.11865 11.0961C9.11865 13.1539 12.872 14.822 17.502 14.822Z" stroke="white" stroke-width="2" stroke-linecap="round" stroke-linejoin="round"/>
<path d="M9.11865 11.0961V22.2739C9.11865 24.3232 12.8446 25.9999 17.502 25.9999C22.1595 25.9999 25.8854 24.3232 25.8854 22.2739V11.0961" stroke="white" stroke-width="2" stroke-linecap="round" stroke-linejoin="round"/>
<path d="M25.8854 16.6851C25.8854 18.7343 22.1595 20.411 17.502 20.411C12.8446 20.411 9.11865 18.7343 9.11865 16.6851M17.3157 3.64422C15.1388 2.30078 12.6049 1.65105 10.0501 1.78124C5.41133 1.78124 1.66675 3.45792 1.66675 5.5072C1.66675 6.60635 2.74727 7.59373 4.46121 8.30166" stroke="white" stroke-width="2" stroke-linecap="round" stroke-linejoin="round"/>
<path d="M4.46121 19.4794C2.74727 18.7715 1.66675 17.7841 1.66675 16.6849V5.50708" stroke="white" stroke-width="2" stroke-linecap="round" stroke-linejoin="round"/>
<path d="M4.46121 13.8905C2.74727 13.1826 1.66675 12.1952 1.66675 11.0961" stroke="white" stroke-width="2" stroke-linecap="round" stroke-linejoin="round"/>
</svg>
