<svg width="23" height="23" viewBox="0 0 23 23" fill="none" xmlns="http://www.w3.org/2000/svg">
<path d="M12.9043 15.9522H6.22926C5.9342 15.9522 5.65123 16.0694 5.4426 16.2781C5.23396 16.4867 5.11676 16.7697 5.11676 17.0647C5.11676 17.3598 5.23396 17.6427 5.4426 17.8514C5.65123 18.06 5.9342 18.1772 6.22926 18.1772H12.9043C13.1993 18.1772 13.4823 18.06 13.6909 17.8514C13.8995 17.6427 14.0168 17.3598 14.0168 17.0647C14.0168 16.7697 13.8995 16.4867 13.6909 16.2781C13.4823 16.0694 13.1993 15.9522 12.9043 15.9522ZM8.45425 9.27722H10.6793C10.9743 9.27722 11.2573 9.16001 11.4659 8.95138C11.6745 8.74274 11.7918 8.45977 11.7918 8.16472C11.7918 7.86967 11.6745 7.5867 11.4659 7.37807C11.2573 7.16943 10.9743 7.05222 10.6793 7.05222H8.45425C8.1592 7.05222 7.87623 7.16943 7.6676 7.37807C7.45896 7.5867 7.34175 7.86967 7.34175 8.16472C7.34175 8.45977 7.45896 8.74274 7.6676 8.95138C7.87623 9.16001 8.1592 9.27722 8.45425 9.27722ZM21.8042 11.5022H18.4667V1.48972C18.4675 1.29369 18.4165 1.10093 18.3188 0.930967C18.2211 0.761001 18.0803 0.619866 17.9105 0.521849C17.7414 0.424207 17.5495 0.372803 17.3542 0.372803C17.159 0.372803 16.9671 0.424207 16.798 0.521849L13.4605 2.43535L10.123 0.521849C9.95388 0.424207 9.76204 0.372803 9.56675 0.372803C9.37147 0.372803 9.17963 0.424207 9.0105 0.521849L5.67301 2.43535L2.33551 0.521849C2.16638 0.424207 1.97454 0.372803 1.77926 0.372803C1.58397 0.372803 1.39213 0.424207 1.22301 0.521849C1.05323 0.619866 0.912376 0.761001 0.814695 0.930967C0.717014 1.10093 0.665979 1.29369 0.666757 1.48972V19.2897C0.666757 20.1749 1.01839 21.0238 1.64429 21.6497C2.27019 22.2756 3.1191 22.6272 4.00426 22.6272H19.5793C20.4644 22.6272 21.3133 22.2756 21.9392 21.6497C22.5651 21.0238 22.9167 20.1749 22.9167 19.2897V12.6147C22.9167 12.3197 22.7995 12.0367 22.5909 11.8281C22.3823 11.6194 22.0993 11.5022 21.8042 11.5022ZM4.00426 20.4022C3.7092 20.4022 3.42623 20.285 3.2176 20.0764C3.00897 19.8677 2.89176 19.5848 2.89176 19.2897V3.41435L5.11676 4.6826C5.28846 4.77228 5.47929 4.81911 5.67301 4.81911C5.86672 4.81911 6.05755 4.77228 6.22926 4.6826L9.56675 2.7691L12.9043 4.6826C13.076 4.77228 13.2668 4.81911 13.4605 4.81911C13.6542 4.81911 13.8451 4.77228 14.0168 4.6826L16.2418 3.41435V19.2897C16.2448 19.6692 16.3125 20.0455 16.442 20.4022H4.00426ZM20.6917 19.2897C20.6917 19.5848 20.5745 19.8677 20.3659 20.0764C20.1573 20.285 19.8743 20.4022 19.5793 20.4022C19.2842 20.4022 19.0012 20.285 18.7926 20.0764C18.584 19.8677 18.4667 19.5848 18.4667 19.2897V13.7272H20.6917V19.2897ZM12.9043 11.5022H6.22926C5.9342 11.5022 5.65123 11.6194 5.4426 11.8281C5.23396 12.0367 5.11676 12.3197 5.11676 12.6147C5.11676 12.9098 5.23396 13.1927 5.4426 13.4014C5.65123 13.61 5.9342 13.7272 6.22926 13.7272H12.9043C13.1993 13.7272 13.4823 13.61 13.6909 13.4014C13.8995 13.1927 14.0168 12.9098 14.0168 12.6147C14.0168 12.3197 13.8995 12.0367 13.6909 11.8281C13.4823 11.6194 13.1993 11.5022 12.9043 11.5022Z" fill="white"/>
</svg>
