<svg width="21" height="20" viewBox="0 0 21 20" fill="none" xmlns="http://www.w3.org/2000/svg">
<path d="M18.0001 0H2.83341C2.25878 0 1.70768 0.228273 1.30135 0.634602C0.895021 1.04093 0.666748 1.59203 0.666748 2.16667V17.3333C0.666748 17.908 0.895021 18.4591 1.30135 18.8654C1.70768 19.2717 2.25878 19.5 2.83341 19.5H18.0001C18.5747 19.5 19.1258 19.2717 19.5321 18.8654C19.9385 18.4591 20.1667 17.908 20.1667 17.3333V2.16667C20.1667 1.59203 19.9385 1.04093 19.5321 0.634602C19.1258 0.228273 18.5747 0 18.0001 0ZM18.0001 17.3333H2.83341V2.16667H18.0001V17.3333ZM9.33342 14.0833H8.25008C6.50591 14.0833 3.91675 12.935 3.91675 9.75C3.91675 6.57583 6.50591 5.41667 8.25008 5.41667H9.33342V7.58333H8.25008C7.75175 7.58333 6.08342 7.7675 6.08342 9.75C6.08342 11.8083 7.89258 11.9167 8.25008 11.9167H9.33342V14.0833ZM12.5834 14.0833H11.5001V11.9167H12.5834C13.0817 11.9167 14.7501 11.7325 14.7501 9.75C14.7501 7.69167 12.9409 7.58333 12.5834 7.58333H11.5001V5.41667H12.5834C14.3276 5.41667 16.9167 6.57583 16.9167 9.75C16.9167 12.935 14.3276 14.0833 12.5834 14.0833ZM13.6667 10.8333H7.16675V8.66667H13.6667V10.8333Z" fill="white"/>
</svg>
