<svg width="25" height="24" viewBox="0 0 25 24" fill="none" xmlns="http://www.w3.org/2000/svg">
<path d="M13.9797 13.6094C13.3381 13.13 12.6461 12.7628 11.9039 12.5077C11.1617 12.2526 10.3848 12.125 9.573 12.125C8.89266 12.125 8.23551 12.2139 7.60156 12.3917C6.96761 12.5695 6.37618 12.8169 5.82727 13.1339C5.27836 13.4509 4.7797 13.8374 4.3313 14.2936C3.88289 14.7497 3.49634 15.2522 3.17163 15.8011C2.84692 16.3501 2.59566 16.9415 2.41785 17.5754C2.24003 18.2094 2.15112 18.8665 2.15112 19.5469H0.666748C0.666748 18.6191 0.802043 17.7262 1.07263 16.868C1.34322 16.0099 1.73364 15.2174 2.2439 14.4907C2.75415 13.764 3.35718 13.1184 4.05298 12.5541C4.74878 11.9897 5.53735 11.5452 6.4187 11.2205C5.98576 10.9499 5.5992 10.6329 5.25903 10.2695C4.91886 9.90617 4.62508 9.50415 4.37769 9.06348C4.13029 8.6228 3.94861 8.1628 3.83264 7.68347C3.71667 7.20414 3.65096 6.70548 3.6355 6.1875C3.6355 5.368 3.79012 4.59875 4.09937 3.87976C4.40861 3.16077 4.83382 2.53455 5.375 2.0011C5.91618 1.46765 6.54626 1.04244 7.26526 0.725464C7.98425 0.408488 8.7535 0.25 9.573 0.25C10.3925 0.25 11.1617 0.404622 11.8807 0.713867C12.5997 1.02311 13.226 1.44832 13.7594 1.9895C14.2928 2.53068 14.7181 3.16077 15.035 3.87976C15.352 4.59875 15.5105 5.368 15.5105 6.1875C15.5105 6.69775 15.4486 7.19641 15.325 7.68347C15.2013 8.17053 15.0157 8.63053 14.7683 9.06348C14.5209 9.49642 14.2271 9.89457 13.887 10.2579C13.5468 10.6213 13.1564 10.9421 12.7157 11.2205C13.1796 11.3983 13.6164 11.607 14.0261 11.8467V13.6094H13.9797ZM5.11987 6.1875C5.11987 6.80599 5.23584 7.38196 5.46777 7.91541C5.69971 8.44885 6.01668 8.92045 6.4187 9.3302C6.82072 9.73995 7.29232 10.0608 7.8335 10.2927C8.37467 10.5247 8.95451 10.6406 9.573 10.6406C10.1838 10.6406 10.7597 10.5247 11.3009 10.2927C11.8421 10.0608 12.3137 9.74382 12.7157 9.3418C13.1177 8.93978 13.4386 8.46818 13.6782 7.927C13.9179 7.38582 14.0339 6.80599 14.0261 6.1875C14.0261 5.57674 13.9102 5.00077 13.6782 4.45959C13.4463 3.91842 13.1293 3.44682 12.7273 3.0448C12.3253 2.64278 11.8498 2.32194 11.3009 2.08228C10.752 1.84261 10.176 1.72664 9.573 1.73438C8.95451 1.73438 8.37854 1.85034 7.84509 2.08228C7.31165 2.31421 6.84005 2.63118 6.4303 3.0332C6.02055 3.43522 5.69971 3.91069 5.46777 4.45959C5.23584 5.0085 5.11987 5.58447 5.11987 6.1875ZM24.4167 15.0938V24H12.5417V15.0938H15.5105V12.125H21.448V15.0938H24.4167ZM16.9949 15.0938H19.9636V13.6094H16.9949V15.0938ZM22.9324 19.5469H21.448V21.0312H19.9636V19.5469H16.9949V21.0312H15.5105V19.5469H14.0261V22.5156H22.9324V19.5469ZM22.9324 16.5781H14.0261V18.0625H22.9324V16.5781Z" fill="white"/>
</svg>
