<svg width="46" height="46" viewBox="0 0 46 46" fill="none" xmlns="http://www.w3.org/2000/svg">
<rect x="0.5" y="0.126709" width="45" height="45" rx="22.5" fill="#F25700" fill-opacity="0.23"/>
<path d="M17.124 12.0651C16.5724 12.0651 16.0434 12.2842 15.6534 12.6742C15.2633 13.0643 15.0442 13.5933 15.0442 14.1449V32.1702C15.0442 32.7218 15.2633 33.2508 15.6534 33.6408C16.0434 34.0309 16.5724 34.25 17.124 34.25H26.8299C27.3815 34.25 27.9106 34.0309 28.3006 33.6408C28.6906 33.2508 28.9098 32.7218 28.9098 32.1702V30.0903C28.9098 29.9065 28.8367 29.7301 28.7067 29.6001C28.5767 29.4701 28.4004 29.397 28.2165 29.397C27.6438 29.397 27.2778 29.2556 27.0296 29.0698C26.7759 28.8799 26.5831 28.5956 26.4417 28.206C26.145 27.3907 26.1367 26.3106 26.1367 25.2374C26.1366 25.1462 26.1186 25.0559 26.0836 24.9716C26.0487 24.8874 25.9974 24.8109 25.9328 24.7465L25.5363 24.3486L23.8544 22.6667C23.2069 22.0192 23.0169 21.5852 22.9809 21.3425C22.9531 21.1484 23.0114 21.0181 23.15 20.885C23.4467 20.6007 23.6589 20.408 23.8988 20.3498C24.0416 20.3137 24.3674 20.2887 24.9525 20.8739L29.1122 25.0335C29.2422 25.1637 29.4186 25.2369 29.6026 25.2371C29.6937 25.2371 29.7839 25.2192 29.8681 25.1844C29.9522 25.1496 30.0287 25.0986 30.0932 25.0342C30.1577 24.9699 30.2088 24.8934 30.2437 24.8093C30.2786 24.7252 30.2967 24.635 30.2967 24.5439C30.2968 24.4528 30.2789 24.3626 30.2441 24.2784C30.2093 24.1942 30.1583 24.1177 30.0939 24.0532L28.9098 22.8705V18.5916L32.4594 22.1412C32.6527 22.3343 32.8061 22.5636 32.9108 22.816C33.0155 23.0685 33.0694 23.3391 33.0695 23.6123V33.5567C33.0695 33.7406 33.1425 33.9169 33.2725 34.0469C33.4025 34.177 33.5789 34.25 33.7627 34.25C33.9466 34.25 34.1229 34.177 34.253 34.0469C34.383 33.9169 34.456 33.7406 34.456 33.5567V23.6123C34.4558 22.6934 34.0907 21.8121 33.441 21.1623L28.9098 16.631V14.1449C28.9098 13.5933 28.6906 13.0643 28.3006 12.6742C27.9106 12.2842 27.3815 12.0651 26.8299 12.0651H17.124ZM27.5232 16.918V21.484L25.9342 19.8936C25.1314 19.0921 24.3341 18.8162 23.5701 19.002C23.4201 19.0391 23.2745 19.0925 23.1361 19.1615C22.5163 18.9819 21.8633 18.949 21.2286 19.0653C20.5938 19.1815 19.9949 19.4439 19.479 19.8315C18.9631 20.2191 18.5444 20.7213 18.256 21.2986C17.9676 21.8758 17.8174 22.5122 17.8173 23.1575C17.8172 23.9617 18.0503 24.7486 18.4882 25.423C18.9261 26.0975 19.5501 26.6305 20.2846 26.9577C21.0192 27.2848 21.8328 27.3921 22.6271 27.2664C23.4213 27.1407 24.1621 26.7875 24.7598 26.2496C24.7834 27.051 24.8638 27.9273 25.1383 28.6802C25.3435 29.2445 25.6708 29.7839 26.1977 30.1777L26.206 30.186C25.7838 30.3188 25.4149 30.5828 25.1531 30.9396C24.8912 31.2965 24.7501 31.7276 24.7501 32.1702V32.8634H19.2039V32.1702C19.2039 31.6186 18.9847 31.0895 18.5947 30.6995C18.2046 30.3095 17.6756 30.0903 17.124 30.0903H16.4307V16.2247H17.124C17.6756 16.2247 18.2046 16.0056 18.5947 15.6156C18.9847 15.2255 19.2039 14.6965 19.2039 14.1449V13.4516H24.7501V14.1449C24.7501 14.6965 24.9692 15.2255 25.3593 15.6156C25.7493 16.0056 26.2783 16.2247 26.8299 16.2247H27.5232V16.918ZM27.5232 32.1702V32.1826C27.5199 32.3643 27.4455 32.5375 27.3158 32.6648C27.1861 32.7921 27.0117 32.8635 26.8299 32.8634H26.1367V32.1702C26.1367 31.9863 26.2097 31.81 26.3397 31.6799C26.4697 31.5499 26.6461 31.4769 26.8299 31.4769H27.5232V32.1702ZM19.2039 23.1575C19.2039 22.4523 19.4726 21.7736 19.9553 21.2594C20.438 20.7453 21.0985 20.4344 21.8023 20.39C21.6303 20.7089 21.543 21.0971 21.6095 21.545C21.708 22.2133 22.1337 22.908 22.8727 23.647L24.1303 24.9046C23.7693 25.3495 23.2793 25.6716 22.7277 25.8268C22.1762 25.9819 21.5901 25.9623 21.0501 25.7708C20.5101 25.5793 20.0427 25.2253 19.7121 24.7573C19.3815 24.2894 19.2039 23.7305 19.2039 23.1575ZM17.8173 13.4516V14.1449C17.8173 14.3288 17.7443 14.5051 17.6142 14.6351C17.4842 14.7651 17.3079 14.8382 17.124 14.8382H16.4307V14.1449C16.4307 13.961 16.5038 13.7847 16.6338 13.6547C16.7638 13.5247 16.9402 13.4516 17.124 13.4516H17.8173ZM16.4307 31.4769H17.124C17.3079 31.4769 17.4842 31.5499 17.6142 31.6799C17.7443 31.81 17.8173 31.9863 17.8173 32.1702V32.8634H17.124C16.9402 32.8634 16.7638 32.7904 16.6338 32.6604C16.5038 32.5304 16.4307 32.354 16.4307 32.1702V31.4769ZM27.5232 14.8382H26.8299C26.6461 14.8382 26.4697 14.7651 26.3397 14.6351C26.2097 14.5051 26.1367 14.3288 26.1367 14.1449V13.4516H26.8299C27.0138 13.4516 27.1901 13.5247 27.3202 13.6547C27.4502 13.7847 27.5232 13.961 27.5232 14.1449V14.8382Z" fill="#F25700"/>
</svg>
