<svg width="34" height="35" viewBox="0 0 34 35" fill="none" xmlns="http://www.w3.org/2000/svg">
<path d="M16.9999 29.5C12.8333 29.5 9.14992 27.3667 6.99992 24.1667C7.04992 20.8334 13.6666 19 16.9999 19C20.3333 19 26.9499 20.8334 26.9999 24.1667C25.8981 25.8074 24.4097 27.152 22.6659 28.082C20.922 29.012 18.9763 29.499 16.9999 29.5ZM16.9999 5.83337C18.326 5.83337 19.5978 6.36016 20.5355 7.29784C21.4731 8.23552 21.9999 9.50729 21.9999 10.8334C21.9999 12.1595 21.4731 13.4312 20.5355 14.3689C19.5978 15.3066 18.326 15.8334 16.9999 15.8334C15.6738 15.8334 14.4021 15.3066 13.4644 14.3689C12.5267 13.4312 11.9999 12.1595 11.9999 10.8334C11.9999 9.50729 12.5267 8.23552 13.4644 7.29784C14.4021 6.36016 15.6738 5.83337 16.9999 5.83337ZM16.9999 0.833374C14.8112 0.833374 12.644 1.26447 10.6219 2.10205C8.59977 2.93963 6.76245 4.16728 5.21481 5.71493C2.0892 8.84053 0.333252 13.0798 0.333252 17.5C0.333252 21.9203 2.0892 26.1595 5.21481 29.2852C6.76245 30.8328 8.59977 32.0605 10.6219 32.898C12.644 33.7356 14.8112 34.1667 16.9999 34.1667C21.4202 34.1667 25.6594 32.4108 28.785 29.2852C31.9106 26.1595 33.6666 21.9203 33.6666 17.5C33.6666 8.28337 26.1666 0.833374 16.9999 0.833374Z" fill="black"/>
</svg>
