<svg width="17" height="18" viewBox="0 0 17 18" fill="none" xmlns="http://www.w3.org/2000/svg">
<path d="M17 16.1791L12.5207 11.6998C13.5971 10.4076 14.1339 8.75013 14.0193 7.07221C13.9048 5.39429 13.1478 3.82513 11.9058 2.69114C10.6638 1.55716 9.03237 0.945662 7.35098 0.983866C5.66959 1.02207 4.06766 1.70703 2.87844 2.89626C1.68921 4.08549 1.00425 5.68742 0.966044 7.3688C0.927839 9.05019 1.53933 10.6816 2.67332 11.9236C3.8073 13.1656 5.37647 13.9226 7.05439 14.0372C8.7323 14.1517 10.3898 13.6149 11.682 12.5385L16.1613 17.0178L17 16.1791ZM2.17182 7.52779C2.17182 6.472 2.4849 5.43993 3.07146 4.56207C3.65802 3.68422 4.49173 3.00002 5.46715 2.59598C6.44256 2.19195 7.51589 2.08624 8.55138 2.29221C9.58688 2.49819 10.5381 3.0066 11.2846 3.75315C12.0312 4.4997 12.5396 5.45087 12.7455 6.48637C12.9515 7.52187 12.8458 8.59519 12.4418 9.57061C12.0377 10.546 11.3535 11.3797 10.4757 11.9663C9.59783 12.5529 8.56575 12.8659 7.50996 12.8659C6.09468 12.8644 4.73782 12.3014 3.73706 11.3007C2.7363 10.2999 2.17339 8.94307 2.17182 7.52779Z" fill="black"/>
</svg>
