<svg width="22" height="18" viewBox="0 0 22 18" fill="none" xmlns="http://www.w3.org/2000/svg">
<path d="M13.6667 14V16C13.6667 16.5304 13.456 17.0391 13.081 17.4142C12.7059 17.7893 12.1972 18 11.6667 18H2.66675C2.13632 18 1.62761 17.7893 1.25253 17.4142C0.877462 17.0391 0.666748 16.5304 0.666748 16V2C0.666748 1.46957 0.877462 0.960859 1.25253 0.585786C1.62761 0.210714 2.13632 0 2.66675 0H11.6667C12.1972 0 12.7059 0.210714 13.081 0.585786C13.456 0.960859 13.6667 1.46957 13.6667 2V4H11.6667V2H2.66675V16H11.6667V14H13.6667ZM16.1667 3.5L14.7527 4.914L17.8387 8H7.66675V10H17.8387L14.7527 13.086L16.1667 14.5L21.6667 9L16.1667 3.5Z" fill="white"/>
</svg>
