<svg width="25" height="24" viewBox="0 0 25 24" fill="none" xmlns="http://www.w3.org/2000/svg">
<path d="M16.8333 13.9167C17.387 13.9167 17.8449 13.7357 18.2069 13.3736C18.569 13.0116 18.75 12.5537 18.75 12C18.75 11.4463 18.569 10.9885 18.2069 10.6264C17.8449 10.2644 17.387 10.0834 16.8333 10.0834C16.2796 10.0834 15.8217 10.2644 15.4597 10.6264C15.0977 10.9885 14.9166 11.4463 14.9166 12C14.9166 12.5537 15.0977 13.0116 15.4597 13.3736C15.8217 13.7357 16.2796 13.9167 16.8333 13.9167ZM13 18.3889C12.2972 18.3889 11.6958 18.1389 11.1957 17.6389C10.6949 17.138 10.4444 16.5361 10.4444 15.8334V8.16668C10.4444 7.4639 10.6949 6.86207 11.1957 6.36118C11.6958 5.86114 12.2972 5.61112 13 5.61112H21.9444C22.6472 5.61112 23.2491 5.86114 23.7499 6.36118C24.25 6.86207 24.5 7.4639 24.5 8.16668V15.8334C24.5 16.5361 24.25 17.138 23.7499 17.6389C23.2491 18.1389 22.6472 18.3889 21.9444 18.3889H13ZM2.77773 23.5001C2.07495 23.5001 1.47312 23.25 0.972225 22.75C0.472187 22.2491 0.222168 21.6473 0.222168 20.9445V3.05556C0.222168 2.35278 0.472187 1.75095 0.972225 1.25006C1.47312 0.750019 2.07495 0.5 2.77773 0.5H20.6667C21.3694 0.5 21.9713 0.750019 22.4722 1.25006C22.9722 1.75095 23.2222 2.35278 23.2222 3.05556H13C11.4879 3.05556 10.2583 3.52919 9.31102 4.47645C8.36291 5.42457 7.88885 6.65464 7.88885 8.16668V15.8334C7.88885 17.3454 8.36291 18.5751 9.31102 19.5223C10.2583 20.4704 11.4879 20.9445 13 20.9445H23.2222C23.2222 21.6473 22.9722 22.2491 22.4722 22.75C21.9713 23.25 21.3694 23.5001 20.6667 23.5001H2.77773Z" fill="white"/>
</svg>
